# xmcd
#
# Track frame offsets: 
#        150
#        10289
#        21271
#        32321
#        43667
#        56161
#        71757
#        85789
#        94745
#        113454
#        125605
#        141596
#        156450
#        176409
#        188917
#
# Disc length: 2737 seconds
#
# Revision: 0
# Processed by: cddbd v1.5.2PL0 Copyright (c) Steve Scherf et al.
# Submitted via: ExactAudioCopyFreeDBPlugin 1.0
#
DISCID=cb0aaf0f
DTITLE=The Loose Change Band - Lucky Penny
DYEAR=2001
DGENRE=Country
TTITLE0=In the Jailhouse Now
TTITLE1=King of the Road
TTITLE2=I'm Leavin' It All Up To You
TTITLE3=I'm Walkin'
TTITLE4=Tumbling Tumbleweeds
TTITLE5=Your Cheatin' Heart
TTITLE6=Last Call
TTITLE7=Everyday
TTITLE8=Ghost Riders In The Sky
TTITLE9=She's The One
TTITLE10=The Way I Am
TTITLE11=Chattanooga Shoeshine Boy
TTITLE12=He Stopped Leavin' Her Today
TTITLE13=Fighting With Your Memories
TTITLE14=Did You Fall In Love With Me
EXTD=
EXTT0=
EXTT1=
EXTT2=
EXTT3=
EXTT4=
EXTT5=
EXTT6=
EXTT7=
EXTT8=
EXTT9=
EXTT10=
EXTT11=
EXTT12=
EXTT13=
EXTT14=
PLAYORDER=
